<svg height='300px' width='300px'  fill="#000000" xmlns:dc="http://purl.org/dc/elements/1.1/" xmlns:cc="http://creativecommons.org/ns#" xmlns:rdf="http://www.w3.org/1999/02/22-rdf-syntax-ns#" xmlns:svg="http://www.w3.org/2000/svg" xmlns="http://www.w3.org/2000/svg" xmlns:sodipodi="http://sodipodi.sourceforge.net/DTD/sodipodi-0.dtd" xmlns:inkscape="http://www.inkscape.org/namespaces/inkscape" viewBox="0 0 8.4666665 8.4666669" version="1.1" x="0px" y="0px"><g transform="translate(0,-288.53332)"><path style="" d="M 5.8229,291.44369 H 4.8923998 L 3.9302,292.76659 H 2.857 l -0.8819,1.323 H 0.52919999 v 0.2646 H 2.1167 l 0.8818999,-1.323 h 1.0664 L 5.0271,291.70829 h 0.9259999 l 1.2689001,-1.6494 0.3976,0.3058 -0.2052,-0.773 H 6.6146 l 0.3976,0.3058 z" fill="#000000" stroke="none"></path><path style="" d="m 4.4979857,293.29597 v 2.64583 h 1.3229167 v -2.64583 z m 0.2645834,0.26458 h 0.79375 v 2.11667 h -0.79375 z" fill="#000000" stroke="none"></path><path style="" d="m 6.3500691,292.50222 v 3.43958 h 1.3229167 v -3.43958 z m 0.2645833,0.26458 h 0.79375 v 2.91042 h -0.79375 z" fill="#000000" stroke="none"></path><path style="" d="m 2.6459024,294.08972 v 1.85208 h 1.3229167 v -1.85208 z m 0.2645833,0.26458 h 0.79375 v 1.32292 h -0.79375 z" fill="#000000" stroke="none"></path><path style="" d="m 0.79381902,294.61889 v 1.32291 H 2.1167357 v -1.32291 z m 0.26458328,0.26458 h 0.7937501 v 0.79375 H 1.0584023 Z" fill="#000000" stroke="none"></path></g></svg>